<svg width="100" height="100" viewBox="0 0 100 100" xmlns="http://www.w3.org/2000/svg">
  <defs>
    <linearGradient id="faceGradient" x1="0%" y1="0%" x2="100%" y2="100%">
      <stop offset="0%" style="stop-color:#3B82F6;stop-opacity:1" />
      <stop offset="100%" style="stop-color:#8B5CF6;stop-opacity:1" />
    </linearGradient>
  </defs>
  
  <!-- Background circle -->
  <circle cx="50" cy="50" r="48" fill="#1F2937" stroke="url(#faceGradient)" stroke-width="2"/>
  
  <!-- Left face profile (facing right) -->
  <path d="M20 35 C15 30, 15 35, 15 40 C15 45, 15 50, 15 55 C15 60, 15 65, 20 70 C25 72, 30 70, 35 65 C40 60, 42 55, 42 50 C42 45, 40 40, 35 35 C30 30, 25 32, 20 35 Z" 
        fill="url(#faceGradient)" opacity="0.8"/>
  
  <!-- Right face profile (facing left) -->
  <path d="M80 35 C85 30, 85 35, 85 40 C85 45, 85 50, 85 55 C85 60, 85 65, 80 70 C75 72, 70 70, 65 65 C60 60, 58 55, 58 50 C58 45, 60 40, 65 35 C70 30, 75 32, 80 35 Z" 
        fill="url(#faceGradient)" opacity="0.8"/>
  
  <!-- Reflection line in the middle -->
  <line x1="50" y1="25" x2="50" y2="75" stroke="url(#faceGradient)" stroke-width="1" opacity="0.5"/>
  
  <!-- Small dots for eyes -->
  <circle cx="25" cy="45" r="1.5" fill="#E5E7EB"/>
  <circle cx="75" cy="45" r="1.5" fill="#E5E7EB"/>
</svg>